<svg xmlns="http://www.w3.org/2000/svg" viewBox="0 0 800 500">
  <defs>
    <linearGradient id="sky1" x1="0%" y1="0%" x2="0%" y2="100%">
      <stop offset="0%" style="stop-color:#1a73e8;stop-opacity:1"/>
      <stop offset="100%" style="stop-color:#87CEEB;stop-opacity:1"/>
    </linearGradient>
    <linearGradient id="sea1" x1="0%" y1="0%" x2="0%" y2="100%">
      <stop offset="0%" style="stop-color:#006994;stop-opacity:1"/>
      <stop offset="100%" style="stop-color:#003d5c;stop-opacity:1"/>
    </linearGradient>
  </defs>
  <rect width="800" height="300" fill="url(#sky1)"/>
  <rect y="300" width="800" height="200" fill="url(#sea1)"/>
  <ellipse cx="150" cy="80" rx="60" ry="25" fill="white" opacity="0.7"/>
  <ellipse cx="200" cy="75" rx="45" ry="20" fill="white" opacity="0.6"/>
  <ellipse cx="600" cy="100" rx="50" ry="20" fill="white" opacity="0.5"/>
  <circle cx="650" cy="80" r="35" fill="#FFD700" opacity="0.8"/>
  <path d="M150 330 L200 370 L600 370 L650 330 Z" fill="#2c3e50" stroke="#1a252f" stroke-width="2"/>
  <path d="M170 330 L200 360 L600 360 L630 330 Z" fill="#34495e"/>
  <rect x="220" y="280" width="360" height="50" rx="3" fill="#ecf0f1" stroke="#bdc3c7" stroke-width="1"/>
  <rect x="260" y="250" width="280" height="30" rx="3" fill="white" stroke="#bdc3c7" stroke-width="1"/>
  <rect x="300" y="200" width="200" height="50" rx="5" fill="#e8e8e8" stroke="#bdc3c7" stroke-width="1"/>
  <circle cx="330" cy="225" r="10" fill="#87CEEB" stroke="#2c3e50" stroke-width="1"/>
  <circle cx="365" cy="225" r="10" fill="#87CEEB" stroke="#2c3e50" stroke-width="1"/>
  <circle cx="400" cy="225" r="10" fill="#87CEEB" stroke="#2c3e50" stroke-width="1"/>
  <circle cx="435" cy="225" r="10" fill="#87CEEB" stroke="#2c3e50" stroke-width="1"/>
  <circle cx="470" cy="225" r="10" fill="#87CEEB" stroke="#2c3e50" stroke-width="1"/>
  <rect x="450" y="180" width="80" height="70" rx="4" fill="#bdc3c7" stroke="#95a5a6" stroke-width="1"/>
  <rect x="460" y="190" width="60" height="25" rx="2" fill="#87CEEB" stroke="#2c3e50" stroke-width="1"/>
  <rect x="360" y="150" width="25" height="50" fill="#e74c3c" stroke="#c0392b" stroke-width="1"/>
  <rect x="355" y="148" width="35" height="8" rx="2" fill="#c0392b"/>
  <rect x="420" y="160" width="20" height="40" fill="#e74c3c" stroke="#c0392b" stroke-width="1"/>
  <rect x="416" y="158" width="28" height="7" rx="2" fill="#c0392b"/>
  <path d="M150 330 L120 340 L150 345 Z" fill="#2c3e50"/>
  <circle cx="240" cy="310" r="12" fill="none" stroke="#e74c3c" stroke-width="3"/>
  <circle cx="240" cy="310" r="12" fill="none" stroke="white" stroke-width="1.5"/>
  <line x1="560" y1="180" x2="560" y2="130" stroke="#2c3e50" stroke-width="2"/>
  <rect x="560" y="130" width="30" height="20" fill="#e74c3c"/>
  <rect y="370" width="800" height="130" fill="url(#sea1)" opacity="0.3"/>
</svg>
